<svg xmlns="http://www.w3.org/2000/svg" viewBox="0 0 285 52" fill="none" role="img" aria-label="Strategic Decision">
  <defs>
    <linearGradient id="mg" x1="0" y1="0" x2="1" y2="1">
      <stop offset="0%" stop-color="#818cf8"/>
      <stop offset="100%" stop-color="#4f46e5"/>
    </linearGradient>
  </defs>
  <g transform="translate(0, 2)">
    <path d="M24 3 L45 24 L24 45 L3 24 Z" fill="url(#mg)"/>
    <line x1="6"  y1="24" x2="42" y2="24" stroke="white" stroke-opacity="0.35" stroke-width="1.4" stroke-linecap="round"/>
    <line x1="24" y1="6"  x2="24" y2="42" stroke="white" stroke-opacity="0.35" stroke-width="1.4" stroke-linecap="round"/>
    <circle cx="24" cy="6"  r="2" fill="white" fill-opacity="0.6"/>
    <circle cx="42" cy="24" r="2" fill="white" fill-opacity="0.6"/>
    <circle cx="24" cy="42" r="2" fill="white" fill-opacity="0.6"/>
    <circle cx="6"  cy="24" r="2" fill="white" fill-opacity="0.6"/>
  </g>
  <path d="M71.980 36.258L71.980 36.258Q69.883 36.258 68.330 35.613Q66.777 34.969 65.910 33.703Q65.043 32.438 64.996 30.586L64.996 30.586L68.477 30.586Q68.547 31.465 69.004 32.057Q69.461 32.648 70.223 32.941Q70.984 33.234 71.945 33.234L71.945 33.234Q72.906 33.234 73.615 32.959Q74.324 32.684 74.723 32.180Q75.121 31.676 75.121 31.008L75.121 31.008Q75.121 30.410 74.764 30.006Q74.406 29.602 73.738 29.309Q73.070 29.016 72.109 28.793L72.109 28.793L70.188 28.313Q67.973 27.773 66.719 26.619Q65.465 25.465 65.465 23.566L65.465 23.566Q65.465 21.984 66.314 20.801Q67.164 19.617 68.646 18.961Q70.129 18.305 72.027 18.305L72.027 18.305Q73.961 18.305 75.402 18.967Q76.844 19.629 77.652 20.807Q78.461 21.984 78.484 23.520L78.484 23.520L75.027 23.520Q74.934 22.465 74.131 21.891Q73.328 21.316 71.992 21.316L71.992 21.316Q71.090 21.316 70.445 21.574Q69.801 21.832 69.467 22.289Q69.133 22.746 69.133 23.332L69.133 23.332Q69.133 23.977 69.520 24.404Q69.906 24.832 70.551 25.096Q71.195 25.359 71.922 25.535L71.922 25.535L73.504 25.922Q74.605 26.168 75.555 26.590Q76.504 27.012 77.219 27.627Q77.934 28.242 78.326 29.086Q78.719 29.930 78.719 31.031L78.719 31.031Q78.719 32.613 77.922 33.791Q77.125 34.969 75.613 35.613Q74.102 36.258 71.980 36.258ZM84.670 22.898L87.119 22.898L87.119 25.582L84.670 25.582L84.670 32.168Q84.670 32.789 84.945 33.088Q85.220 33.387 85.865 33.387L85.865 33.387Q86.064 33.387 86.427 33.334Q86.791 33.281 86.978 33.234L86.978 33.234L87.482 35.871Q86.896 36.047 86.316 36.117Q85.736 36.188 85.209 36.188L85.209 36.188Q83.240 36.188 82.197 35.227Q81.154 34.266 81.154 32.473L81.154 32.473L81.154 25.582L79.349 25.582L79.349 22.898L81.154 22.898L81.154 19.781L84.670 19.781L84.670 22.898ZM92.320 36L88.804 36L88.804 22.898L92.202 22.898L92.202 25.184L92.343 25.184Q92.706 23.965 93.556 23.344Q94.405 22.723 95.507 22.723L95.507 22.723Q95.777 22.723 96.093 22.752Q96.409 22.781 96.644 22.840L96.644 22.840L96.644 25.980Q96.409 25.898 95.964 25.852Q95.519 25.805 95.120 25.805L95.120 25.805Q94.323 25.805 93.679 26.150Q93.034 26.496 92.677 27.111Q92.320 27.727 92.320 28.547L92.320 28.547L92.320 36ZM101.634 36.258L101.634 36.258Q100.391 36.258 99.401 35.818Q98.411 35.379 97.843 34.506Q97.274 33.633 97.274 32.332L97.274 32.332Q97.274 31.242 97.679 30.504Q98.083 29.766 98.780 29.320Q99.477 28.875 100.362 28.641Q101.247 28.406 102.220 28.313L102.220 28.313Q103.356 28.195 104.054 28.096Q104.751 27.996 105.073 27.779Q105.395 27.563 105.395 27.141L105.395 27.141L105.395 27.082Q105.395 26.520 105.161 26.133Q104.927 25.746 104.464 25.541Q104.001 25.336 103.345 25.336L103.345 25.336Q102.665 25.336 102.161 25.541Q101.657 25.746 101.341 26.086Q101.024 26.426 100.872 26.848L100.872 26.848L97.649 26.320Q97.989 25.172 98.774 24.375Q99.559 23.578 100.725 23.156Q101.891 22.734 103.356 22.734L103.356 22.734Q104.411 22.734 105.407 22.986Q106.403 23.238 107.194 23.766Q107.985 24.293 108.448 25.143Q108.911 25.992 108.911 27.176L108.911 27.176L108.911 36L105.583 36L105.583 34.184L105.466 34.184Q105.149 34.793 104.622 35.256Q104.095 35.719 103.350 35.988Q102.606 36.258 101.634 36.258ZM102.630 33.785L102.630 33.785Q103.462 33.785 104.089 33.457Q104.716 33.129 105.067 32.566Q105.419 32.004 105.419 31.313L105.419 31.313L105.419 29.895Q105.266 30.012 104.950 30.105Q104.634 30.199 104.247 30.270Q103.860 30.340 103.485 30.398Q103.110 30.457 102.817 30.492L102.817 30.492Q102.173 30.586 101.680 30.797Q101.188 31.008 100.919 31.354Q100.649 31.699 100.649 32.238L100.649 32.238Q100.649 32.742 100.907 33.088Q101.165 33.434 101.610 33.609Q102.055 33.785 102.630 33.785ZM115.366 22.898L117.815 22.898L117.815 25.582L115.366 25.582L115.366 32.168Q115.366 32.789 115.641 33.088Q115.916 33.387 116.561 33.387L116.561 33.387Q116.760 33.387 117.123 33.334Q117.487 33.281 117.674 33.234L117.674 33.234L118.178 35.871Q117.592 36.047 117.012 36.117Q116.432 36.188 115.905 36.188L115.905 36.188Q113.936 36.188 112.893 35.227Q111.850 34.266 111.850 32.473L111.850 32.473L111.850 25.582L110.045 25.582L110.045 22.898L111.850 22.898L111.850 19.781L115.366 19.781L115.366 22.898ZM125.418 36.258L125.418 36.258Q123.414 36.258 121.961 35.438Q120.508 34.617 119.729 33.105Q118.949 31.594 118.949 29.520L118.949 29.520Q118.949 27.492 119.723 25.969Q120.496 24.445 121.914 23.590Q123.332 22.734 125.242 22.734L125.242 22.734Q126.531 22.734 127.645 23.145Q128.758 23.555 129.602 24.381Q130.445 25.207 130.920 26.449Q131.395 27.691 131.395 29.379L131.395 29.379L131.395 30.363L122.430 30.363Q122.465 31.359 122.816 32.063L122.816 32.063Q123.191 32.836 123.877 33.223Q124.563 33.609 125.477 33.609L125.477 33.609Q126.098 33.609 126.602 33.434Q127.105 33.258 127.463 32.912Q127.820 32.566 128.008 32.063L128.008 32.063L131.195 32.660Q130.879 33.738 130.094 34.553Q129.309 35.367 128.131 35.813Q126.953 36.258 125.418 36.258ZM122.453 28.160L122.453 28.160L128.008 28.160Q127.938 27.504 127.727 26.965L127.727 26.965Q127.410 26.215 126.795 25.799Q126.180 25.383 125.277 25.383L125.277 25.383Q124.363 25.383 123.725 25.805Q123.086 26.227 122.758 26.941L122.758 26.941Q122.512 27.492 122.453 28.160ZM139.021 41.180L139.021 41.180Q137.380 41.180 136.162 40.764Q134.943 40.348 134.181 39.621Q133.420 38.895 133.127 37.969L133.127 37.969L136.150 37.125Q136.314 37.488 136.660 37.834Q137.005 38.180 137.580 38.402Q138.154 38.625 138.998 38.625L138.998 38.625Q140.345 38.625 141.113 38.010Q141.880 37.395 141.880 36.094L141.880 36.094L141.880 33.680L141.611 33.680Q141.377 34.207 140.931 34.699Q140.486 35.191 139.765 35.502Q139.045 35.813 137.978 35.813L137.978 35.813Q136.502 35.813 135.295 35.121Q134.088 34.430 133.367 33.012Q132.646 31.594 132.646 29.426L132.646 29.426Q132.646 27.211 133.379 25.723Q134.111 24.234 135.324 23.484Q136.537 22.734 137.990 22.734L137.990 22.734Q139.091 22.734 139.841 23.104Q140.591 23.473 141.054 24.029Q141.517 24.586 141.752 25.102L141.752 25.102L141.904 25.102L141.904 22.898L145.361 22.898L145.361 35.895Q145.361 37.664 144.546 38.836Q143.732 40.008 142.302 40.594Q140.873 41.180 139.021 41.180ZM139.080 33.141L139.080 33.141Q139.982 33.141 140.609 32.695Q141.236 32.250 141.564 31.412Q141.892 30.574 141.892 29.402L141.892 29.402Q141.892 28.242 141.564 27.375Q141.236 26.508 140.609 26.027Q139.982 25.547 139.080 25.547L139.080 25.547Q138.154 25.547 137.527 26.045Q136.900 26.543 136.578 27.410Q136.255 28.277 136.255 29.402L136.255 29.402Q136.255 30.551 136.578 31.389Q136.900 32.227 137.533 32.684Q138.166 33.141 139.080 33.141ZM151.277 36L147.761 36L147.761 22.898L151.277 22.898L151.277 36ZM149.519 21.188L149.519 21.188Q148.722 21.188 148.159 20.660Q147.597 20.133 147.597 19.383L147.597 19.383Q147.597 18.633 148.159 18.105Q148.722 17.578 149.519 17.578L149.519 17.578Q150.316 17.578 150.884 18.100Q151.452 18.621 151.452 19.383L151.452 19.383Q151.452 20.133 150.884 20.660Q150.316 21.188 149.519 21.188ZM159.524 36.258L159.524 36.258Q157.544 36.258 156.108 35.408Q154.673 34.559 153.893 33.041Q153.114 31.523 153.114 29.508L153.114 29.508Q153.114 27.469 153.893 25.951Q154.673 24.434 156.108 23.584Q157.544 22.734 159.524 22.734L159.524 22.734Q160.684 22.734 161.669 23.039Q162.653 23.344 163.415 23.906Q164.177 24.469 164.669 25.277Q165.161 26.086 165.348 27.094L165.348 27.094L162.079 27.703Q161.973 27.188 161.751 26.783Q161.528 26.379 161.212 26.092Q160.895 25.805 160.479 25.652Q160.063 25.500 159.559 25.500L159.559 25.500Q158.622 25.500 157.983 26.004Q157.345 26.508 157.022 27.410Q156.700 28.313 156.700 29.496L156.700 29.496Q156.700 30.656 157.022 31.559Q157.345 32.461 157.983 32.977Q158.622 33.492 159.559 33.492L159.559 33.492Q160.063 33.492 160.485 33.334Q160.907 33.176 161.235 32.877Q161.563 32.578 161.786 32.156Q162.009 31.734 162.102 31.207L162.102 31.207L165.372 31.805Q165.184 32.848 164.692 33.662Q164.200 34.477 163.438 35.063Q162.677 35.648 161.686 35.953Q160.696 36.258 159.524 36.258Z" fill="#0f172a"/>
  <path d="M174.009 36L174.009 36L167.868 36L167.868 18.539L174.067 18.539Q176.692 18.539 178.585 19.588Q180.477 20.637 181.497 22.588Q182.516 24.539 182.516 27.258L182.516 27.258Q182.516 29.988 181.497 31.945Q180.477 33.902 178.573 34.951Q176.669 36 174.009 36ZM171.442 21.621L171.442 32.918L173.833 32.918Q175.520 32.918 176.663 32.320Q177.805 31.723 178.380 30.469Q178.954 29.215 178.954 27.258L178.954 27.258Q178.954 25.313 178.374 24.064Q177.794 22.816 176.663 22.219Q175.532 21.621 173.856 21.621L173.856 21.621L171.442 21.621ZM190.436 36.258L190.436 36.258Q188.432 36.258 186.979 35.438Q185.526 34.617 184.746 33.105Q183.967 31.594 183.967 29.520L183.967 29.520Q183.967 27.492 184.741 25.969Q185.514 24.445 186.932 23.590Q188.350 22.734 190.260 22.734L190.260 22.734Q191.549 22.734 192.663 23.145Q193.776 23.555 194.620 24.381Q195.463 25.207 195.938 26.449Q196.413 27.691 196.413 29.379L196.413 29.379L196.413 30.363L187.448 30.363Q187.483 31.359 187.834 32.063L187.834 32.063Q188.209 32.836 188.895 33.223Q189.580 33.609 190.495 33.609L190.495 33.609Q191.116 33.609 191.620 33.434Q192.123 33.258 192.481 32.912Q192.838 32.566 193.026 32.063L193.026 32.063L196.213 32.660Q195.897 33.738 195.112 34.553Q194.327 35.367 193.149 35.813Q191.971 36.258 190.436 36.258ZM187.471 28.160L187.471 28.160L193.026 28.160Q192.955 27.504 192.745 26.965L192.745 26.965Q192.428 26.215 191.813 25.799Q191.198 25.383 190.295 25.383L190.295 25.383Q189.381 25.383 188.743 25.805Q188.104 26.227 187.776 26.941L187.776 26.941Q187.530 27.492 187.471 28.160ZM204.074 36.258L204.074 36.258Q202.094 36.258 200.658 35.408Q199.223 34.559 198.443 33.041Q197.664 31.523 197.664 29.508L197.664 29.508Q197.664 27.469 198.443 25.951Q199.223 24.434 200.658 23.584Q202.094 22.734 204.074 22.734L204.074 22.734Q205.234 22.734 206.219 23.039Q207.203 23.344 207.965 23.906Q208.727 24.469 209.219 25.277Q209.711 26.086 209.898 27.094L209.898 27.094L206.629 27.703Q206.523 27.188 206.301 26.783Q206.078 26.379 205.762 26.092Q205.445 25.805 205.029 25.652Q204.613 25.500 204.109 25.500L204.109 25.500Q203.172 25.500 202.533 26.004Q201.895 26.508 201.572 27.410Q201.250 28.313 201.250 29.496L201.250 29.496Q201.250 30.656 201.572 31.559Q201.895 32.461 202.533 32.977Q203.172 33.492 204.109 33.492L204.109 33.492Q204.613 33.492 205.035 33.334Q205.457 33.176 205.785 32.877Q206.113 32.578 206.336 32.156Q206.559 31.734 206.652 31.207L206.652 31.207L209.922 31.805Q209.734 32.848 209.242 33.662Q208.750 34.477 207.988 35.063Q207.227 35.648 206.236 35.953Q205.246 36.258 204.074 36.258ZM215.252 36L211.736 36L211.736 22.898L215.252 22.898L215.252 36ZM213.494 21.188L213.494 21.188Q212.697 21.188 212.134 20.660Q211.572 20.133 211.572 19.383L211.572 19.383Q211.572 18.633 212.134 18.105Q212.697 17.578 213.494 17.578L213.494 17.578Q214.291 17.578 214.859 18.100Q215.427 18.621 215.427 19.383L215.427 19.383Q215.427 20.133 214.859 20.660Q214.291 21.188 213.494 21.188ZM222.843 36.258L222.843 36.258Q221.261 36.258 220.042 35.807Q218.823 35.355 218.050 34.494Q217.277 33.633 217.054 32.414L217.054 32.414L220.323 31.852Q220.581 32.766 221.226 33.223Q221.870 33.680 222.948 33.680L222.948 33.680Q223.956 33.680 224.536 33.299Q225.116 32.918 225.116 32.332L225.116 32.332Q225.116 31.816 224.700 31.488Q224.284 31.160 223.429 30.984L223.429 30.984L221.167 30.516Q219.269 30.129 218.331 29.197Q217.394 28.266 217.394 26.801L217.394 26.801Q217.394 25.535 218.085 24.627Q218.777 23.719 220.007 23.227Q221.238 22.734 222.902 22.734L222.902 22.734Q224.448 22.734 225.585 23.162Q226.722 23.590 227.425 24.375Q228.128 25.160 228.363 26.227L228.363 26.227L225.245 26.777Q225.046 26.109 224.478 25.682Q223.909 25.254 222.948 25.254L222.948 25.254Q222.081 25.254 221.495 25.617Q220.909 25.980 220.909 26.590L220.909 26.590Q220.909 27.082 221.290 27.422Q221.671 27.762 222.597 27.949L222.597 27.949L224.952 28.418Q226.851 28.805 227.777 29.678Q228.702 30.551 228.702 31.957L228.702 31.957Q228.702 33.246 227.952 34.213Q227.202 35.180 225.884 35.719Q224.566 36.258 222.843 36.258ZM233.997 36L230.481 36L230.481 22.898L233.997 22.898L233.997 36ZM232.239 21.188L232.239 21.188Q231.442 21.188 230.880 20.660Q230.317 20.133 230.317 19.383L230.317 19.383Q230.317 18.633 230.880 18.105Q231.442 17.578 232.239 17.578L232.239 17.578Q233.036 17.578 233.604 18.100Q234.173 18.621 234.173 19.383L234.173 19.383Q234.173 20.133 233.604 20.660Q233.036 21.188 232.239 21.188ZM242.245 36.258L242.245 36.258Q240.276 36.258 238.834 35.408Q237.393 34.559 236.614 33.041Q235.834 31.523 235.834 29.508L235.834 29.508Q235.834 27.469 236.614 25.951Q237.393 24.434 238.834 23.584Q240.276 22.734 242.245 22.734L242.245 22.734Q244.225 22.734 245.661 23.584Q247.096 24.434 247.875 25.951Q248.655 27.469 248.655 29.508L248.655 29.508Q248.655 31.523 247.875 33.041Q247.096 34.559 245.661 35.408Q244.225 36.258 242.245 36.258ZM242.245 33.492L242.245 33.492Q243.182 33.492 243.815 32.971Q244.448 32.449 244.764 31.541Q245.080 30.633 245.080 29.496L245.080 29.496Q245.080 28.336 244.764 27.434Q244.448 26.531 243.815 26.016Q243.182 25.500 242.245 25.500L242.245 25.500Q241.307 25.500 240.680 26.016Q240.053 26.531 239.737 27.434Q239.420 28.336 239.420 29.496L239.420 29.496Q239.420 30.633 239.737 31.541Q240.053 32.449 240.680 32.971Q241.307 33.492 242.245 33.492ZM254.020 28.418L254.020 28.418L254.020 36L250.504 36L250.504 22.898L253.820 22.898L253.867 25.605Q254.371 24.363 255.238 23.625L255.238 23.625Q256.281 22.734 257.945 22.734L257.945 22.734Q259.305 22.734 260.318 23.326Q261.332 23.918 261.889 25.025Q262.445 26.133 262.445 27.668L262.445 27.668L262.445 36L258.930 36L258.930 28.277Q258.930 27.059 258.303 26.367Q257.676 25.676 256.563 25.676L256.563 25.676Q255.824 25.676 255.244 25.998Q254.664 26.320 254.342 26.930Q254.020 27.539 254.020 28.418Z"  fill="#6366f1"/>
  <path d="M267.106 38.095L267.106 38.095Q266.696 38.095 266.406 37.806Q266.117 37.517 266.117 37.106L266.117 37.106Q266.117 36.696 266.406 36.407Q266.696 36.118 267.106 36.118L267.106 36.118Q267.516 36.118 267.805 36.407Q268.095 36.696 268.095 37.106L268.095 37.106Q268.095 37.517 267.805 37.806Q267.516 38.095 267.106 38.095ZM272.341 38.190L272.341 38.190Q271.565 38.190 270.931 37.897Q270.298 37.604 269.924 37.041Q269.551 36.477 269.551 35.671L269.551 35.671Q269.551 34.968 269.829 34.528Q270.107 34.089 270.573 33.836Q271.038 33.583 271.602 33.459Q272.166 33.334 272.737 33.261L272.737 33.261Q273.469 33.166 273.931 33.115Q274.392 33.063 274.615 32.939Q274.839 32.814 274.839 32.514L274.839 32.514L274.839 32.470Q274.839 31.958 274.648 31.602Q274.458 31.247 274.077 31.057Q273.696 30.866 273.125 30.866L273.125 30.866Q272.539 30.866 272.122 31.049Q271.704 31.232 271.444 31.507Q271.184 31.782 271.052 32.067L271.052 32.067L269.785 31.650Q270.100 30.903 270.635 30.482Q271.169 30.061 271.814 29.885Q272.458 29.709 273.088 29.709L273.088 29.709Q273.499 29.709 274.022 29.808Q274.546 29.907 275.033 30.200Q275.520 30.493 275.839 31.068Q276.157 31.643 276.157 32.602L276.157 32.602L276.157 38L274.861 38L274.861 36.887L274.773 36.887Q274.634 37.172 274.326 37.476Q274.019 37.780 273.528 37.985Q273.037 38.190 272.341 38.190ZM272.568 37.026L272.568 37.026Q273.301 37.026 273.806 36.740Q274.312 36.455 274.575 35.997Q274.839 35.539 274.839 35.041L274.839 35.041L274.839 33.906Q274.758 34.001 274.487 34.078Q274.216 34.155 273.868 34.213Q273.521 34.272 273.195 34.312Q272.869 34.353 272.678 34.375L272.678 34.375Q272.202 34.433 271.788 34.576Q271.375 34.719 271.125 34.993Q270.876 35.268 270.876 35.737L270.876 35.737Q270.876 36.162 271.096 36.447Q271.316 36.733 271.697 36.879Q272.078 37.026 272.568 37.026ZM279.415 38L278.097 38L278.097 29.812L279.415 29.812L279.415 38ZM278.763 28.471L278.763 28.471Q278.390 28.471 278.119 28.215Q277.848 27.958 277.848 27.600L277.848 27.600Q277.848 27.233 278.119 26.981Q278.390 26.728 278.763 26.728L278.763 26.728Q279.144 26.728 279.415 26.981Q279.686 27.233 279.686 27.600L279.686 27.600Q279.686 27.958 279.415 28.215Q279.144 28.471 278.763 28.471Z"        fill="#818cf8" fill-opacity="0.65"/>
</svg>